# xmcd
#
# Track frame offsets: 
#        150
#        18715
#        35910
#        51907
#        74137
#        89960
#        105865
#        124552
#        145625
#        162235
#
# Disc length: 2373 seconds
#
# Revision: 5
# Processed by: cddbd v1.5.2PL0 Copyright (c) Steve Scherf et al.
# Submitted via: ExactAudioCopyFreeDBPlugin 1.0
#
DISCID=9109430a
DTITLE=鮎川麻弥 - MELTING POINT
DYEAR=1987
DGENRE=Pop
TTITLE0=ハイヌーン・ボディー
TTITLE1=愛はロマネスク
TTITLE2=夢色チェイサー
TTITLE3=Z・刻をこえて
TTITLE4=イリュージョンをさがして
TTITLE5=風のノーリプライ
TTITLE6=とびきりSEXY MAGIC
TTITLE7=ワンダーランド
TTITLE8=RAINY LOVE
TTITLE9=星空のBelieve
EXTD=YEAR: 1987
EXTT0=
EXTT1=
EXTT2=
EXTT3=
EXTT4=
EXTT5=
EXTT6=
EXTT7=
EXTT8=
EXTT9=
PLAYORDER=
